<?xml version="1.0" encoding="iso-8859-1"?>
<!-- Generator: Adobe Illustrator 19.0.0, SVG Export Plug-In . SVG Version: 6.00 Build 0)  -->
<svg version="1.1" id="Capa_1" xmlns="http://www.w3.org/2000/svg" xmlns:xlink="http://www.w3.org/1999/xlink" x="0px" y="0px"
	 viewBox="0 0 512 512" style="enable-background:new 0 0 512 512;" xml:space="preserve">
<path style="fill:#E8E8E8;" d="M511.999,256.002C511.999,397.386,397.385,512,256,512c-9.488,0-18.85-0.512-28.055-1.526
	c-52.328-5.695-99.913-27.167-137.916-59.559C34.932,403.958,0.001,334.055,0.001,256.002c0-34.931,6.99-68.221,19.665-98.565
	c29.445-70.53,89.547-125.063,163.651-146.964C206.357,3.66,230.745,0.003,256,0.003c2.633,0,5.256,0.042,7.868,0.125
	c51.168,1.536,98.554,18.098,137.916,45.422C468.385,91.765,511.999,168.795,511.999,256.002z"/>
<circle style="fill:#F4F4F4;" cx="255.999" cy="213.305" r="213.294"/>
<path style="fill:#FF525D;" d="M471.896,313.544l-114.75,121.124c-13.207,13.939-35.422,13.939-48.64,0l-114.74-121.124
	c-11.452-12.089-2.884-32.016,13.761-32.016h56.341V0.128c51.168,1.536,98.554,18.098,137.915,45.422v235.979h56.341
	C474.78,281.528,483.348,301.454,471.896,313.544z"/>
<path style="fill:#4BC999;" d="M284.286,163.602h-56.341v346.873c-52.328-5.695-99.913-27.167-137.916-59.559V163.602H33.689
	c-5.841,0-10.689-2.456-14.022-6.165c-6.175-6.855-7.168-18.004,0.261-25.851l114.74-121.124c13.218-13.949,35.432-13.949,48.64,0
	l0.01,0.01l114.74,121.114C309.509,143.675,300.941,163.602,284.286,163.602z"/>
<g>
</g>
<g>
</g>
<g>
</g>
<g>
</g>
<g>
</g>
<g>
</g>
<g>
</g>
<g>
</g>
<g>
</g>
<g>
</g>
<g>
</g>
<g>
</g>
<g>
</g>
<g>
</g>
<g>
</g>
</svg>
